<svg xmlns="http://www.w3.org/2000/svg" version="1.1" xmlns:xlink="http://www.w3.org/1999/xlink" xmlns:svgjs="http://svgjs.com/svgjs" width="1440" height="560" preserveAspectRatio="none" viewBox="0 0 1440 560"><g mask="url(&quot;#SvgjsMask1013&quot;)" fill="none"><rect width="1440" height="560" x="0" y="0" fill="rgba(36, 192, 235, 1)"></rect><path d="M 0,262 C 57.6,229.8 172.8,110.2 288,101 C 403.2,91.8 460.8,234 576,216 C 691.2,198 748.8,7.6 864,11 C 979.2,14.4 1036.8,227.8 1152,233 C 1267.2,238.2 1382.4,76.2 1440,37L1440 560L0 560z" fill="rgba(255, 255, 255, 1)"></path><path d="M 0,414 C 96,437 288,534 480,529 C 672,524 768,385 960,389 C 1152,393 1344,517 1440,549L1440 560L0 560z" fill="rgba(36, 192, 235, 1)"></path></g><defs><mask id="SvgjsMask1013"><rect width="1440" height="560" fill="#ffffff"></rect></mask></defs></svg>